:SAMPLES-PER-SECOND 30
:FULLY-SPECIFIED
:DEGREES
1748
root  6.6544 40.5869 3.93599 86.8904 -78.4342 -105.011
RightUpLeg  -47.1308 -8.61552 -2.09877
RightLeg  45.0987 -2.03093 -2.46299
RightFoot  13.5862 -2.82016 13.1172
RightToes  -4.65663e-010 0 -3.6325e-017
Spine  25.8798 -1.24664 -1.23218
Spine1  -0.437863 -2.40143 6.27954
HEad  9.93028 5.33628 -0.456552
LeftShoulder1  6.12213 -8.64236 -43.8366
LeftArm  -12.0556 20.4959 -25.2191
LeftForeArm  27.4601 -34.1987 -6.03015
LeftHand  -0.244104 0.0205437 5.32207
RightShoulder  5.15104 7.94978 38.8896
RightArm  -5.82884 -29.8628 28.1069
RightForeArm  13.348 11.0143 6.04357
RightHand  -1.3489 4.49307 -16.0265
LeftUpLeg  9.34757 13.4347 10.6965
LeftLeg  14.8546 6.47599 0.463696
LeftFoot  -6.83835 -0.246677 7.309
LeftToes  4.18335e-011 1.59304e-011 3.38507e-012
1749
root  6.44517 40.532 3.90802 85.2153 -78.7295 -102.012
RightUpLeg  -45.4493 -7.31188 -2.92842
RightLeg  51.1499 -0.548785 -1.09444
RightFoot  14.5756 -3.52089 15.6707
RightToes  -4.65663e-010 0 -3.6325e-017
Spine  23.5221 -1.04865 -1.39474
Spine1  -0.413311 -2.12028 5.76161
HEad  10.3898 4.26758 0.083492
LeftShoulder1  6.05531 -8.57518 -43.5862
LeftArm  -11.8081 21.0239 -25.4796
LeftForeArm  28.1278 -34.28 -6.01282
LeftHand  -0.244104 0.0205437 5.32207
RightShoulder  5.09851 7.86676 38.7612
RightArm  -5.69481 -30.4325 28.4711
RightForeArm  8.85927 13.4209 5.8673
RightHand  -1.39625 4.66437 -16.3016
LeftUpLeg  7.6591 13.0867 10.0061
LeftLeg  15.8258 6.44658 0.639032
LeftFoot  -7.54061 -0.194253 7.2175
LeftToes  4.18335e-011 1.59304e-011 3.38507e-012
1750
root  6.291 40.5152 3.94299 85.489 -79.0813 -100.781
RightUpLeg  -42.8876 -5.35869 -3.64684
RightLeg  53.8007 0.780093 0.735002
RightFoot  14.3398 -3.72921 16.6961
RightToes  -4.65663e-010 0 -3.6325e-017
Spine  20.7774 -0.688944 -1.30167
Spine1  0.404253 -1.73708 5.28163
HEad  10.5475 3.14424 0.504606
LeftShoulder1  6.05841 -8.55642 -43.6805
LeftArm  -11.4659 21.1294 -25.4451
LeftForeArm  28.9756 -34.0958 -5.91688
LeftHand  -0.244104 0.0205437 5.32207
RightShoulder  5.07694 7.87678 38.5417
RightArm  -4.58028 -30.1489 28.7921
RightForeArm  5.38582 15.7501 5.62515
RightHand  -1.43458 4.6601 -16.7434
LeftUpLeg  6.10738 12.6592 9.07915
LeftLeg  16.0134 6.85534 0.71687
LeftFoot  -7.81503 -0.177177 7.27602
LeftToes  4.18335e-011 1.59304e-011 3.38507e-012
1751
root  6.17117 40.474 3.98449 86.1148 -79.827 -100.375
RightUpLeg  -38.9633 -3.6347 -4.46568
RightLeg  53.2388 1.34232 1.54522
RightFoot  14.5091 -3.72634 16.5768
RightToes  -4.65663e-010 0 -3.6325e-017
Spine  18.7486 -0.140311 -1.75766
Spine1  0.957819 -1.27019 4.96443
HEad  10.9427 2.05596 0.876445
LeftShoulder1  6.133 -8.6561 -43.8667
LeftArm  -11.1846 21.4711 -25.2786
LeftForeArm  29.3118 -33.7749 -5.81646
LeftHand  -0.244104 0.0205437 5.32207
RightShoulder  5.01776 7.84249 38.1707
RightArm  -2.576 -29.1179 28.9987
RightForeArm  4.04205 17.7906 5.32085
RightHand  -1.44906 4.49798 -17.1718
LeftUpLeg  5.1135 12.1231 7.85828
LeftLeg  16.1025 7.46946 0.742715
LeftFoot  -8.086 -0.158386 7.27566
LeftToes  4.18335e-011 1.59304e-011 3.38507e-012
1752
root  6.06816 40.3523 4.00203 86.6005 -80.8018 -100.278
RightUpLeg  -33.7759 -2.6 -5.23005
RightLeg  49.4995 0.616853 0.461362
RightFoot  15.487 -3.88993 16.6642
RightToes  -4.65663e-010 0 -3.6325e-017
Spine  17.5585 0.432824 -2.50808
Spine1  0.897417 -0.716926 4.34487
HEad  11.6755 0.826336 1.24493
LeftShoulder1  6.22475 -8.82744 -43.9089
LeftArm  -10.9863 22.1483 -25.047
LeftForeArm  28.9833 -33.3812 -5.73655
LeftHand  -0.244104 0.0205437 5.32207
RightShoulder  4.9855 7.83017 37.9432
RightArm  -0.552853 -27.798 28.986
RightForeArm  3.67771 19.8212 4.96822
RightHand  -1.45814 4.43755 -17.3778
LeftUpLeg  4.21346 11.9032 6.55678
LeftLeg  16.996 7.87485 0.91637
LeftFoot  -8.81057 -0.108556 7.31679
LeftToes  4.18335e-011 1.59304e-011 3.38507e-012
1753
root  5.99172 40.2493 4.05305 88.1502 -81.4544 -101.047
RightUpLeg  -28.5321 -1.68683 -5.49335
RightLeg  44.0324 -0.835073 -1.16439
RightFoot  15.7104 -3.83511 16.3006
RightToes  -4.65663e-010 0 -3.6325e-017
Spine  16.1792 0.885308 -2.42242
Spine1  0.997248 -0.0904991 3.34608
HEad  12.6378 -0.683676 1.4979
LeftShoulder1  6.28654 -8.96075 -43.8703
LeftArm  -10.87 22.7889 -24.672
LeftForeArm  28.5506 -32.9877 -5.66344
LeftHand  -0.244104 0.0205437 5.32207
RightShoulder  5.00723 7.87486 37.9609
RightArm  0.248703 -26.5314 28.8197
RightForeArm  3.4887 22.0755 4.77078
RightHand  -1.48629 4.57278 -17.4727
LeftUpLeg  3.10549 12.0659 5.45767
LeftLeg  17.7387 8.18676 1.21629
LeftFoot  -9.42837 -0.0723303 7.72232
LeftToes  4.18335e-011 1.59304e-011 3.38507e-012
1754
root  5.90823 40.2222 4.16324 92.5543 -81.7353 -104.172
RightUpLeg  -24.338 -0.354817 -5.27368
RightLeg  38.9477 -1.56069 -1.63703
RightFoot  14.2884 -3.31214 14.9147
RightToes  -4.65663e-010 0 -3.6325e-017
Spine  14.0067 1.33089 -1.22419
Spine1  1.59764 0.755581 1.9843
HEad  13.9065 -2.39582 1.50378
LeftShoulder1  6.29325 -8.97405 -43.8705
LeftArm  -10.7775 23.1149 -24.1918
LeftForeArm  28.3792 -32.5358 -5.56193
LeftHand  -0.244104 0.0205437 5.32207
RightShoulder  5.01182 7.87385 38.0034
RightArm  -0.595181 -25.5478 28.6204
RightForeArm  3.49764 24.6792 5.07856
RightHand  -1.54701 4.74459 -17.8676
LeftUpLeg  1.85097 12.3238 4.49734
LeftLeg  17.6874 8.79278 1.4944
LeftFoot  -9.64121 -0.0651998 8.2928
LeftToes  4.18335e-011 1.59304e-011 3.38507e-012
1755
root  5.7955 40.2099 4.29126 100.707 -81.8881 -110.833
RightUpLeg  -21.4621 0.720033 -4.93434
RightLeg  35.5316 -1.12035 -1.11272
RightFoot  12.29 -2.78871 13.6901
RightToes  -4.65663e-010 0 -3.6325e-017
Spine  11.6823 1.95435 0.389093
Spine1  2.06857 1.88757 0.229113
HEad  15.5558 -3.99282 1.30001
LeftShoulder1  6.23481 -8.84797 -43.9069
LeftArm  -10.7917 23.3532 -23.7904
LeftForeArm  28.1654 -32.0228 -5.44895
LeftHand  -0.244104 0.0205437 5.32207
RightShoulder  4.97629 7.81355 37.927
RightArm  -1.70188 -24.8069 28.3228
RightForeArm  3.21143 27.5009 5.76269
RightHand  -1.63312 4.85749 -18.632
LeftUpLeg  0.539674 12.7178 3.61481
LeftLeg  17.5149 9.58709 1.59595
LeftFoot  -9.84201 -0.0517339 8.4626
LeftToes  4.18335e-011 1.59304e-011 3.38507e-012
1756
root  5.69046 40.1966 4.40022 109.936 -81.8148 -118.544
RightUpLeg  -19.8121 0.20769 -4.49231
RightLeg  34.2387 -0.649019 -0.71843
RightFoot  11.2059 -2.65497 13.6541
RightToes  -4.65663e-010 0 -3.6325e-017
Spine  9.98236 2.57646 1.63224
Spine1  1.80409 2.88064 -1.26004
HEad  17.3947 -5.16795 1.10285
LeftShoulder1  6.11871 -8.61906 -43.8992
LeftArm  -11.2503 24.0249 -23.6464
LeftForeArm  27.6243 -31.6209 -5.38229
LeftHand  -0.244104 0.0205437 5.32207
RightShoulder  4.95735 7.8034 37.8037
RightArm  -1.77183 -23.8499 27.7668
RightForeArm  2.89319 29.9906 6.37932
RightHand  -1.68727 4.88035 -19.1899
LeftUpLeg  -0.834567 13.374 3.07037
LeftLeg  17.5131 10.0441 1.35333
LeftFoot  -10.1017 -0.0277174 8.17252
LeftToes  4.18335e-011 1.59304e-011 3.38507e-012
1757
root  5.6353 40.242 4.47185 114.732 -81.518 -121.663
RightUpLeg  -19.1646 -1.88737 -3.82621
RightLeg  34.9365 -1.00925 -1.0115
RightFoot  11.1331 -2.76734 14.2515
RightToes  -4.65663e-010 0 -3.6325e-017
Spine  8.81621 2.84831 1.84576
Spine1  0.957697 3.14172 -1.32346
HEad  19.0454 -5.96216 1.17491
LeftShoulder1  5.98037 -8.38248 -43.7496
LeftArm  -12.3259 25.2432 -23.8731
LeftForeArm  27.0311 -31.32 -5.34339
LeftHand  -0.244104 0.0205437 5.32207
RightShoulder  4.97105 7.85511 37.7277
RightArm  -1.25615 -22.321 27.0223
RightForeArm  4.04395 31.7782 6.76765
RightHand  -1.65339 4.72917 -19.0835
LeftUpLeg  -2.27276 13.9031 3.03954
LeftLeg  17.0841 9.94061 0.722144
LeftFoot  -10.0069 -0.0302719 7.76731
LeftToes  4.18335e-011 1.59304e-011 3.38507e-012
1758
root  5.63825 40.3614 4.48418 112.886 -81.3034 -118.075
RightUpLeg  -18.9971 -4.10562 -3.16794
RightLeg  36.9931 -1.42219 -1.40785
RightFoot  11.4566 -2.90238 14.7183
RightToes  -4.65663e-010 0 -3.6325e-017
Spine  7.94542 2.70883 0.640152
Spine1  0.0902361 2.5929 0.417723
HEad  20.0724 -6.68603 1.74351
LeftShoulder1  5.87654 -8.2687 -43.3854
LeftArm  -13.5648 26.4406 -24.4551
LeftForeArm  26.7264 -30.7993 -5.23673
LeftHand  -0.244104 0.0205437 5.32207
RightShoulder  4.97876 7.86951 37.7397
RightArm  -1.27808 -20.5785 26.318
RightForeArm  6.83273 33.3456 7.02049
RightHand  -1.5978 4.54733 -18.7892
LeftUpLeg  -3.6094 13.8082 3.40859
LeftLeg  15.9901 9.4703 -0.111008
LeftFoot  -9.49384 -0.0560167 7.03279
LeftToes  4.18335e-011 1.59304e-011 3.38507e-012
1759
root  5.68645 40.5097 4.42499 106.021 -81.173 -109.776
RightUpLeg  -18.9013 -5.46453 -2.81001
RightLeg  40.3635 -0.852343 -1.03968
RightFoot  11.5724 -3.02964 15.2673
RightToes  -4.65663e-010 0 -3.6325e-017
Spine  7.65193 2.35864 -1.71241
Spine1  -0.483102 1.61763 3.25043
HEad  20.1042 -7.50752 2.96378
LeftShoulder1  5.84148 -8.35121 -42.7953
LeftArm  -14.1702 27.0362 -25.1764
LeftForeArm  26.6029 -29.9707 -5.04903
LeftHand  -0.244104 0.0205437 5.32207
RightShoulder  4.9662 7.81947 37.8192
RightArm  -2.28147 -19.3663 25.6726
RightForeArm  9.40388 35.5302 7.46853
RightHand  -1.64836 4.65213 -19.1643
LeftUpLeg  -4.57752 13.2168 4.12621
LeftLeg  14.6531 8.70291 -0.984962
LeftFoot  -8.92326 -0.0606235 5.42238
LeftToes  4.18335e-011 1.59304e-011 3.38507e-012
